####
#
#	OBJ File Generated by LightWave3D
#	LightWave3D OBJ Export v2.3
#
####
o curved_cube.obj
mtllib curved_cube.mtl
g default
v -0.3 0 0.3
v 0.3 0 0.3
v 0.3 0 -0.3
v -0.3 0 -0.3
v -0.3 0.0267949 0.4
v 0.3 0.0267949 0.4
v 0.35 0.0267949 0.386603
v 0.386603 0.0267949 0.35
v 0.4 0.0267949 0.3
v 0.4 0.0267949 -0.3
v 0.386603 0.0267949 -0.35
v 0.35 0.0267949 -0.386603
v 0.3 0.0267949 -0.4
v -0.3 0.0267949 -0.4
v -0.35 0.0267949 -0.386603
v -0.386603 0.0267949 -0.35
v -0.4 0.0267949 -0.3
v -0.4 0.0267949 0.3
v -0.386603 0.0267949 0.35
v -0.35 0.0267949 0.386603
v -0.3 0.1 0.473205
v 0.3 0.1 0.473205
v 0.386603 0.1 0.45
v 0.45 0.1 0.386603
v 0.473205 0.1 0.3
v 0.473205 0.1 -0.3
v 0.45 0.1 -0.386603
v 0.386603 0.1 -0.45
v 0.3 0.1 -0.473205
v -0.3 0.1 -0.473205
v -0.386603 0.1 -0.45
v -0.45 0.1 -0.386603
v -0.473205 0.1 -0.3
v -0.473205 0.1 0.3
v -0.45 0.1 0.386603
v -0.386603 0.1 0.45
v -0.3 0.2 0.5
v 0.3 0.2 0.5
v 0.4 0.2 0.473205
v 0.473205 0.2 0.4
v 0.5 0.2 0.3
v 0.5 0.2 -0.3
v 0.473205 0.2 -0.4
v 0.4 0.2 -0.473205
v 0.3 0.2 -0.5
v -0.3 0.2 -0.5
v -0.4 0.2 -0.473205
v -0.473205 0.2 -0.4
v -0.5 0.2 -0.3
v -0.5 0.2 0.3
v -0.473205 0.2 0.4
v -0.4 0.2 0.473205
v -0.3 0.8 0.5
v 0.3 0.8 0.5
v 0.4 0.8 0.473205
v 0.473205 0.8 0.4
v 0.5 0.8 0.3
v 0.5 0.8 -0.3
v 0.473205 0.8 -0.4
v 0.4 0.8 -0.473205
v 0.3 0.8 -0.5
v -0.3 0.8 -0.5
v -0.4 0.8 -0.473205
v -0.473205 0.8 -0.4
v -0.5 0.8 -0.3
v -0.5 0.8 0.3
v -0.473205 0.8 0.4
v -0.4 0.8 0.473205
v -0.3 0.9 0.473205
v 0.3 0.9 0.473205
v 0.386603 0.9 0.45
v 0.45 0.9 0.386603
v 0.473205 0.9 0.3
v 0.473205 0.9 -0.3
v 0.45 0.9 -0.386603
v 0.386603 0.9 -0.45
v 0.3 0.9 -0.473205
v -0.3 0.9 -0.473205
v -0.386603 0.9 -0.45
v -0.45 0.9 -0.386603
v -0.473205 0.9 -0.3
v -0.473205 0.9 0.3
v -0.45 0.9 0.386603
v -0.386603 0.9 0.45
v -0.3 0.973205 0.4
v 0.3 0.973205 0.4
v 0.35 0.973205 0.386603
v 0.386603 0.973205 0.35
v 0.4 0.973205 0.3
v 0.4 0.973205 -0.3
v 0.386603 0.973205 -0.35
v 0.35 0.973205 -0.386603
v 0.3 0.973205 -0.4
v -0.3 0.973205 -0.4
v -0.35 0.973205 -0.386603
v -0.386603 0.973205 -0.35
v -0.4 0.973205 -0.3
v -0.4 0.973205 0.3
v -0.386603 0.973205 0.35
v -0.35 0.973205 0.386603
v -0.3 1 0.3
v 0.3 1 0.3
v 0.3 1 -0.3
v -0.3 1 -0.3
vn 0 -1 -0
vn 0 -1 -0
vn 0 -1 -0
vn 0 -1 -0
vn 0 -0.965926 0.258819
vn 0 -0.965926 0.258819
vn 0 -0.965926 0.258819
vn 0 -0.965926 0.258819
vn 0.0691842 -0.963611 0.258199
vn 0.0691842 -0.963611 0.258199
vn 0.0691842 -0.963611 0.258199
vn 0.189015 -0.963611 0.189015
vn 0.189015 -0.963611 0.189015
vn 0.189015 -0.963611 0.189015
vn 0.258199 -0.963611 0.0691842
vn 0.258199 -0.963611 0.0691842
vn 0.258199 -0.963611 0.0691842
vn 0.258819 -0.965926 -0
vn 0.258819 -0.965926 -0
vn 0.258819 -0.965926 -0
vn 0.258819 -0.965926 -0
vn 0.258199 -0.963611 -0.0691842
vn 0.258199 -0.963611 -0.0691842
vn 0.258199 -0.963611 -0.0691842
vn 0.189015 -0.963611 -0.189015
vn 0.189015 -0.963611 -0.189015
vn 0.189015 -0.963611 -0.189015
vn 0.0691842 -0.963611 -0.258199
vn 0.0691842 -0.963611 -0.258199
vn 0.0691842 -0.963611 -0.258199
vn 0 -0.965926 -0.258819
vn 0 -0.965926 -0.258819
vn 0 -0.965926 -0.258819
vn 0 -0.965926 -0.258819
vn -0.0691842 -0.963611 -0.258199
vn -0.0691842 -0.963611 -0.258199
vn -0.0691842 -0.963611 -0.258199
vn -0.189015 -0.963611 -0.189015
vn -0.189015 -0.963611 -0.189015
vn -0.189015 -0.963611 -0.189015
vn -0.258199 -0.963611 -0.0691842
vn -0.258199 -0.963611 -0.0691842
vn -0.258199 -0.963611 -0.0691842
vn -0.258819 -0.965926 -0
vn -0.258819 -0.965926 -0
vn -0.258819 -0.965926 -0
vn -0.258819 -0.965926 -0
vn -0.258199 -0.963611 0.0691842
vn -0.258199 -0.963611 0.0691842
vn -0.258199 -0.963611 0.0691842
vn -0.189015 -0.963611 0.189015
vn -0.189015 -0.963611 0.189015
vn -0.189015 -0.963611 0.189015
vn -0.0691842 -0.963611 0.258199
vn -0.0691842 -0.963611 0.258199
vn -0.0691842 -0.963611 0.258199
vn 0 -0.707107 0.707107
vn 0 -0.707107 0.707107
vn 0 -0.707107 0.707107
vn 0 -0.707107 0.707107
vn 0.186157 -0.694747 0.694747
vn 0.186157 -0.694747 0.694747
vn 0.186157 -0.694747 0.694747
vn 0.186157 -0.694747 0.694747
vn 0.50859 -0.694746 0.50859
vn 0.50859 -0.694746 0.50859
vn 0.50859 -0.694746 0.50859
vn 0.50859 -0.694746 0.50859
vn 0.694747 -0.694746 0.186157
vn 0.694747 -0.694746 0.186157
vn 0.694747 -0.694746 0.186157
vn 0.694747 -0.694746 0.186157
vn 0.707107 -0.707107 -0
vn 0.707107 -0.707107 -0
vn 0.707107 -0.707107 -0
vn 0.707107 -0.707107 -0
vn 0.694747 -0.694747 -0.186157
vn 0.694747 -0.694747 -0.186157
vn 0.694747 -0.694747 -0.186157
vn 0.694747 -0.694747 -0.186157
vn 0.50859 -0.694746 -0.50859
vn 0.50859 -0.694746 -0.50859
vn 0.50859 -0.694746 -0.50859
vn 0.50859 -0.694746 -0.50859
vn 0.186157 -0.694746 -0.694747
vn 0.186157 -0.694746 -0.694747
vn 0.186157 -0.694746 -0.694747
vn 0.186157 -0.694746 -0.694747
vn 0 -0.707107 -0.707107
vn 0 -0.707107 -0.707107
vn 0 -0.707107 -0.707107
vn 0 -0.707107 -0.707107
vn -0.186157 -0.694746 -0.694747
vn -0.186157 -0.694746 -0.694747
vn -0.186157 -0.694746 -0.694747
vn -0.186157 -0.694746 -0.694747
vn -0.50859 -0.694746 -0.50859
vn -0.50859 -0.694746 -0.50859
vn -0.50859 -0.694746 -0.50859
vn -0.50859 -0.694746 -0.50859
vn -0.694747 -0.694747 -0.186157
vn -0.694747 -0.694747 -0.186157
vn -0.694747 -0.694747 -0.186157
vn -0.694747 -0.694747 -0.186157
vn -0.707107 -0.707107 -0
vn -0.707107 -0.707107 -0
vn -0.707107 -0.707107 -0
vn -0.707107 -0.707107 -0
vn -0.694747 -0.694746 0.186157
vn -0.694747 -0.694746 0.186157
vn -0.694747 -0.694746 0.186157
vn -0.694747 -0.694746 0.186157
vn -0.50859 -0.694746 0.50859
vn -0.50859 -0.694746 0.50859
vn -0.50859 -0.694746 0.50859
vn -0.50859 -0.694746 0.50859
vn -0.186157 -0.694747 0.694747
vn -0.186157 -0.694747 0.694747
vn -0.186157 -0.694747 0.694747
vn -0.186157 -0.694747 0.694747
vn 0 -0.258819 0.965926
vn 0 -0.258819 0.965926
vn 0 -0.258819 0.965926
vn 0 -0.258819 0.965926
vn 0.250563 -0.250563 0.935113
vn 0.250563 -0.250563 0.935113
vn 0.250563 -0.250563 0.935113
vn 0.250563 -0.250563 0.935113
vn 0.68455 -0.250563 0.68455
vn 0.68455 -0.250563 0.68455
vn 0.68455 -0.250563 0.68455
vn 0.68455 -0.250563 0.68455
vn 0.935113 -0.250563 0.250563
vn 0.935113 -0.250563 0.250563
vn 0.935113 -0.250563 0.250563
vn 0.935113 -0.250563 0.250563
vn 0.965926 -0.258819 -0
vn 0.965926 -0.258819 -0
vn 0.965926 -0.258819 -0
vn 0.965926 -0.258819 -0
vn 0.935113 -0.250563 -0.250563
vn 0.935113 -0.250563 -0.250563
vn 0.935113 -0.250563 -0.250563
vn 0.935113 -0.250563 -0.250563
vn 0.68455 -0.250563 -0.68455
vn 0.68455 -0.250563 -0.68455
vn 0.68455 -0.250563 -0.68455
vn 0.68455 -0.250563 -0.68455
vn 0.250563 -0.250563 -0.935113
vn 0.250563 -0.250563 -0.935113
vn 0.250563 -0.250563 -0.935113
vn 0.250563 -0.250563 -0.935113
vn 0 -0.258819 -0.965926
vn 0 -0.258819 -0.965926
vn 0 -0.258819 -0.965926
vn 0 -0.258819 -0.965926
vn -0.250563 -0.250563 -0.935113
vn -0.250563 -0.250563 -0.935113
vn -0.250563 -0.250563 -0.935113
vn -0.250563 -0.250563 -0.935113
vn -0.68455 -0.250563 -0.68455
vn -0.68455 -0.250563 -0.68455
vn -0.68455 -0.250563 -0.68455
vn -0.68455 -0.250563 -0.68455
vn -0.935113 -0.250563 -0.250563
vn -0.935113 -0.250563 -0.250563
vn -0.935113 -0.250563 -0.250563
vn -0.935113 -0.250563 -0.250563
vn -0.965926 -0.258819 -0
vn -0.965926 -0.258819 -0
vn -0.965926 -0.258819 -0
vn -0.965926 -0.258819 -0
vn -0.935113 -0.250563 0.250563
vn -0.935113 -0.250563 0.250563
vn -0.935113 -0.250563 0.250563
vn -0.935113 -0.250563 0.250563
vn -0.68455 -0.250563 0.68455
vn -0.68455 -0.250563 0.68455
vn -0.68455 -0.250563 0.68455
vn -0.68455 -0.250563 0.68455
vn -0.250563 -0.250563 0.935113
vn -0.250563 -0.250563 0.935113
vn -0.250563 -0.250563 0.935113
vn -0.250563 -0.250563 0.935113
vn 0 0 1
vn 0 0 1
vn 0 0 1
vn 0 0 1
vn 0.258819 0 0.965926
vn 0.258819 0 0.965926
vn 0.258819 0 0.965926
vn 0.258819 0 0.965926
vn 0.707107 0 0.707107
vn 0.707107 0 0.707107
vn 0.707107 0 0.707107
vn 0.707107 0 0.707107
vn 0.965926 0 0.258819
vn 0.965926 0 0.258819
vn 0.965926 0 0.258819
vn 0.965926 0 0.258819
vn 1 0 -0
vn 1 0 -0
vn 1 0 -0
vn 1 0 -0
vn 0.965926 -0 -0.258819
vn 0.965926 -0 -0.258819
vn 0.965926 -0 -0.258819
vn 0.965926 -0 -0.258819
vn 0.707107 -0 -0.707107
vn 0.707107 -0 -0.707107
vn 0.707107 -0 -0.707107
vn 0.707107 -0 -0.707107
vn 0.258819 -0 -0.965926
vn 0.258819 -0 -0.965926
vn 0.258819 -0 -0.965926
vn 0.258819 -0 -0.965926
vn 0 0 -1
vn 0 0 -1
vn 0 0 -1
vn 0 0 -1
vn -0.258819 0 -0.965926
vn -0.258819 0 -0.965926
vn -0.258819 0 -0.965926
vn -0.258819 0 -0.965926
vn -0.707107 0 -0.707107
vn -0.707107 0 -0.707107
vn -0.707107 0 -0.707107
vn -0.707107 0 -0.707107
vn -0.965926 0 -0.258819
vn -0.965926 0 -0.258819
vn -0.965926 0 -0.258819
vn -0.965926 0 -0.258819
vn -1 0 -0
vn -1 0 -0
vn -1 0 -0
vn -1 0 -0
vn -0.965926 0 0.258819
vn -0.965926 0 0.258819
vn -0.965926 0 0.258819
vn -0.965926 0 0.258819
vn -0.707107 0 0.707107
vn -0.707107 0 0.707107
vn -0.707107 0 0.707107
vn -0.707107 0 0.707107
vn -0.258819 0 0.965926
vn -0.258819 0 0.965926
vn -0.258819 0 0.965926
vn -0.258819 0 0.965926
vn 0 0.258819 0.965926
vn 0 0.258819 0.965926
vn 0 0.258819 0.965926
vn 0 0.258819 0.965926
vn 0.250563 0.250563 0.935113
vn 0.250563 0.250563 0.935113
vn 0.250563 0.250563 0.935113
vn 0.250563 0.250563 0.935113
vn 0.68455 0.250563 0.68455
vn 0.68455 0.250563 0.68455
vn 0.68455 0.250563 0.68455
vn 0.68455 0.250563 0.68455
vn 0.935113 0.250563 0.250563
vn 0.935113 0.250563 0.250563
vn 0.935113 0.250563 0.250563
vn 0.935113 0.250563 0.250563
vn 0.965926 0.258819 0
vn 0.965926 0.258819 0
vn 0.965926 0.258819 0
vn 0.965926 0.258819 0
vn 0.935113 0.250563 -0.250563
vn 0.935113 0.250563 -0.250563
vn 0.935113 0.250563 -0.250563
vn 0.935113 0.250563 -0.250563
vn 0.68455 0.250563 -0.68455
vn 0.68455 0.250563 -0.68455
vn 0.68455 0.250563 -0.68455
vn 0.68455 0.250563 -0.68455
vn 0.250563 0.250563 -0.935113
vn 0.250563 0.250563 -0.935113
vn 0.250563 0.250563 -0.935113
vn 0.250563 0.250563 -0.935113
vn -0 0.258819 -0.965926
vn -0 0.258819 -0.965926
vn -0 0.258819 -0.965926
vn -0 0.258819 -0.965926
vn -0.250563 0.250563 -0.935113
vn -0.250563 0.250563 -0.935113
vn -0.250563 0.250563 -0.935113
vn -0.250563 0.250563 -0.935113
vn -0.68455 0.250563 -0.68455
vn -0.68455 0.250563 -0.68455
vn -0.68455 0.250563 -0.68455
vn -0.68455 0.250563 -0.68455
vn -0.935113 0.250563 -0.250563
vn -0.935113 0.250563 -0.250563
vn -0.935113 0.250563 -0.250563
vn -0.935113 0.250563 -0.250563
vn -0.965926 0.258819 -0
vn -0.965926 0.258819 -0
vn -0.965926 0.258819 -0
vn -0.965926 0.258819 -0
vn -0.935113 0.250563 0.250563
vn -0.935113 0.250563 0.250563
vn -0.935113 0.250563 0.250563
vn -0.935113 0.250563 0.250563
vn -0.68455 0.250563 0.68455
vn -0.68455 0.250563 0.68455
vn -0.68455 0.250563 0.68455
vn -0.68455 0.250563 0.68455
vn -0.250563 0.250563 0.935113
vn -0.250563 0.250563 0.935113
vn -0.250563 0.250563 0.935113
vn -0.250563 0.250563 0.935113
vn 0 0.707107 0.707107
vn 0 0.707107 0.707107
vn 0 0.707107 0.707107
vn 0 0.707107 0.707107
vn 0.186157 0.694746 0.694747
vn 0.186157 0.694746 0.694747
vn 0.186157 0.694746 0.694747
vn 0.186157 0.694746 0.694747
vn 0.50859 0.694746 0.50859
vn 0.50859 0.694746 0.50859
vn 0.50859 0.694746 0.50859
vn 0.50859 0.694746 0.50859
vn 0.694747 0.694746 0.186157
vn 0.694747 0.694746 0.186157
vn 0.694747 0.694746 0.186157
vn 0.694747 0.694746 0.186157
vn 0.707107 0.707107 0
vn 0.707107 0.707107 0
vn 0.707107 0.707107 0
vn 0.707107 0.707107 0
vn 0.694747 0.694746 -0.186157
vn 0.694747 0.694746 -0.186157
vn 0.694747 0.694746 -0.186157
vn 0.694747 0.694746 -0.186157
vn 0.50859 0.694746 -0.50859
vn 0.50859 0.694746 -0.50859
vn 0.50859 0.694746 -0.50859
vn 0.50859 0.694746 -0.50859
vn 0.186157 0.694746 -0.694747
vn 0.186157 0.694746 -0.694747
vn 0.186157 0.694746 -0.694747
vn 0.186157 0.694746 -0.694747
vn -0 0.707107 -0.707107
vn -0 0.707107 -0.707107
vn -0 0.707107 -0.707107
vn -0 0.707107 -0.707107
vn -0.186157 0.694746 -0.694747
vn -0.186157 0.694746 -0.694747
vn -0.186157 0.694746 -0.694747
vn -0.186157 0.694746 -0.694747
vn -0.50859 0.694746 -0.50859
vn -0.50859 0.694746 -0.50859
vn -0.50859 0.694746 -0.50859
vn -0.50859 0.694746 -0.50859
vn -0.694747 0.694746 -0.186157
vn -0.694747 0.694746 -0.186157
vn -0.694747 0.694746 -0.186157
vn -0.694747 0.694746 -0.186157
vn -0.707107 0.707107 -0
vn -0.707107 0.707107 -0
vn -0.707107 0.707107 -0
vn -0.707107 0.707107 -0
vn -0.694747 0.694746 0.186157
vn -0.694747 0.694746 0.186157
vn -0.694747 0.694746 0.186157
vn -0.694747 0.694746 0.186157
vn -0.50859 0.694746 0.50859
vn -0.50859 0.694746 0.50859
vn -0.50859 0.694746 0.50859
vn -0.50859 0.694746 0.50859
vn -0.186157 0.694746 0.694747
vn -0.186157 0.694746 0.694747
vn -0.186157 0.694746 0.694747
vn -0.186157 0.694746 0.694747
vn 0 0.965926 0.258819
vn 0 0.965926 0.258819
vn 0 0.965926 0.258819
vn 0 0.965926 0.258819
vn 0.0691842 0.963611 0.258199
vn 0.0691842 0.963611 0.258199
vn 0.0691842 0.963611 0.258199
vn 0.189015 0.963611 0.189015
vn 0.189015 0.963611 0.189015
vn 0.189015 0.963611 0.189015
vn 0.258199 0.963611 0.0691842
vn 0.258199 0.963611 0.0691842
vn 0.258199 0.963611 0.0691842
vn 0.258819 0.965926 0
vn 0.258819 0.965926 0
vn 0.258819 0.965926 0
vn 0.258819 0.965926 0
vn 0.258199 0.963611 -0.0691842
vn 0.258199 0.963611 -0.0691842
vn 0.258199 0.963611 -0.0691842
vn 0.189015 0.963611 -0.189015
vn 0.189015 0.963611 -0.189015
vn 0.189015 0.963611 -0.189015
vn 0.0691842 0.963611 -0.258199
vn 0.0691842 0.963611 -0.258199
vn 0.0691842 0.963611 -0.258199
vn -0 0.965926 -0.258819
vn -0 0.965926 -0.258819
vn -0 0.965926 -0.258819
vn -0 0.965926 -0.258819
vn -0.0691842 0.963611 -0.258199
vn -0.0691842 0.963611 -0.258199
vn -0.0691842 0.963611 -0.258199
vn -0.189015 0.963611 -0.189015
vn -0.189015 0.963611 -0.189015
vn -0.189015 0.963611 -0.189015
vn -0.258199 0.963611 -0.0691842
vn -0.258199 0.963611 -0.0691842
vn -0.258199 0.963611 -0.0691842
vn -0.258819 0.965926 -0
vn -0.258819 0.965926 -0
vn -0.258819 0.965926 -0
vn -0.258819 0.965926 -0
vn -0.258199 0.963611 0.0691842
vn -0.258199 0.963611 0.0691842
vn -0.258199 0.963611 0.0691842
vn -0.189015 0.963611 0.189015
vn -0.189015 0.963611 0.189015
vn -0.189015 0.963611 0.189015
vn -0.0691842 0.963611 0.258199
vn -0.0691842 0.963611 0.258199
vn -0.0691842 0.963611 0.258199
vn 0 1 -0
vn 0 1 -0
vn 0 1 -0
vn 0 1 -0
g Default
usemtl Default
s off
f 4//1 3//2 2//3 1//4
f 2//5 6//6 5//7 1//8
f 7//9 6//10 2//11
f 8//12 7//13 2//14
f 9//15 8//16 2//17
f 3//18 10//19 9//20 2//21
f 11//22 10//23 3//24
f 12//25 11//26 3//27
f 13//28 12//29 3//30
f 14//31 13//32 3//33 4//34
f 15//35 14//36 4//37
f 16//38 15//39 4//40
f 17//41 16//42 4//43
f 18//44 17//45 4//46 1//47
f 19//48 18//49 1//50
f 20//51 19//52 1//53
f 5//54 20//55 1//56
f 6//57 22//58 21//59 5//60
f 7//61 23//62 22//63 6//64
f 8//65 24//66 23//67 7//68
f 9//69 25//70 24//71 8//72
f 10//73 26//74 25//75 9//76
f 11//77 27//78 26//79 10//80
f 12//81 28//82 27//83 11//84
f 13//85 29//86 28//87 12//88
f 30//89 29//90 13//91 14//92
f 31//93 30//94 14//95 15//96
f 32//97 31//98 15//99 16//100
f 33//101 32//102 16//103 17//104
f 34//105 33//106 17//107 18//108
f 35//109 34//110 18//111 19//112
f 36//113 35//114 19//115 20//116
f 21//117 36//118 20//119 5//120
f 22//121 38//122 37//123 21//124
f 23//125 39//126 38//127 22//128
f 24//129 40//130 39//131 23//132
f 25//133 41//134 40//135 24//136
f 26//137 42//138 41//139 25//140
f 27//141 43//142 42//143 26//144
f 28//145 44//146 43//147 27//148
f 29//149 45//150 44//151 28//152
f 46//153 45//154 29//155 30//156
f 47//157 46//158 30//159 31//160
f 48//161 47//162 31//163 32//164
f 49//165 48//166 32//167 33//168
f 50//169 49//170 33//171 34//172
f 51//173 50//174 34//175 35//176
f 52//177 51//178 35//179 36//180
f 37//181 52//182 36//183 21//184
f 38//185 54//186 53//187 37//188
f 39//189 55//190 54//191 38//192
f 40//193 56//194 55//195 39//196
f 41//197 57//198 56//199 40//200
f 42//201 58//202 57//203 41//204
f 43//205 59//206 58//207 42//208
f 44//209 60//210 59//211 43//212
f 45//213 61//214 60//215 44//216
f 62//217 61//218 45//219 46//220
f 63//221 62//222 46//223 47//224
f 64//225 63//226 47//227 48//228
f 65//229 64//230 48//231 49//232
f 66//233 65//234 49//235 50//236
f 67//237 66//238 50//239 51//240
f 68//241 67//242 51//243 52//244
f 53//245 68//246 52//247 37//248
f 54//249 70//250 69//251 53//252
f 55//253 71//254 70//255 54//256
f 56//257 72//258 71//259 55//260
f 57//261 73//262 72//263 56//264
f 58//265 74//266 73//267 57//268
f 59//269 75//270 74//271 58//272
f 60//273 76//274 75//275 59//276
f 61//277 77//278 76//279 60//280
f 78//281 77//282 61//283 62//284
f 79//285 78//286 62//287 63//288
f 80//289 79//290 63//291 64//292
f 81//293 80//294 64//295 65//296
f 82//297 81//298 65//299 66//300
f 83//301 82//302 66//303 67//304
f 84//305 83//306 67//307 68//308
f 69//309 84//310 68//311 53//312
f 70//313 86//314 85//315 69//316
f 71//317 87//318 86//319 70//320
f 72//321 88//322 87//323 71//324
f 73//325 89//326 88//327 72//328
f 74//329 90//330 89//331 73//332
f 75//333 91//334 90//335 74//336
f 76//337 92//338 91//339 75//340
f 77//341 93//342 92//343 76//344
f 94//345 93//346 77//347 78//348
f 95//349 94//350 78//351 79//352
f 96//353 95//354 79//355 80//356
f 97//357 96//358 80//359 81//360
f 98//361 97//362 81//363 82//364
f 99//365 98//366 82//367 83//368
f 100//369 99//370 83//371 84//372
f 85//373 100//374 84//375 69//376
f 86//377 102//378 101//379 85//380
f 87//381 102//382 86//383
f 88//384 102//385 87//386
f 89//387 102//388 88//389
f 90//390 103//391 102//392 89//393
f 91//394 103//395 90//396
f 92//397 103//398 91//399
f 93//400 103//401 92//402
f 104//403 103//404 93//405 94//406
f 104//407 94//408 95//409
f 104//410 95//411 96//412
f 104//413 96//414 97//415
f 101//416 104//417 97//418 98//419
f 101//420 98//421 99//422
f 101//423 99//424 100//425
f 101//426 100//427 85//428
f 102//429 103//430 104//431 101//432
